HIERARCHY
ROOT Hips
{
  OFFSET 5.72205e-005 65.662 3.42586
  CHANNELS 6 Xposition Yposition Zposition Zrotation Xrotation Yrotation
  JOINT Chest
  {
    OFFSET 0 8.7983 -4.7612
    CHANNELS 6 Xposition Yposition Zposition Zrotation Xrotation Yrotation
    JOINT Chest2
    {
      OFFSET 0 8.0291 0.4195
      CHANNELS 6 Xposition Yposition Zposition Zrotation Xrotation Yrotation
      JOINT Chest3
      {
        OFFSET 0 9.9351 -2.2114
        CHANNELS 6 Xposition Yposition Zposition Zrotation Xrotation Yrotation
        JOINT Neck
        {
          OFFSET 0 22.3885 -0.4656
          CHANNELS 6 Xposition Yposition Zposition Zrotation Xrotation Yrotation
          JOINT Head
          {
            OFFSET -0.0001 12.643 3.4389
            CHANNELS 6 Xposition Yposition Zposition Zrotation Xrotation Yrotation
            End Site
            {
              OFFSET 0.0001 17.6655 0.5274
            }
          }
        }
        JOINT LeftCollar
        {
          OFFSET 2.2603 21.606 7.4023
          CHANNELS 6 Xposition Yposition Zposition Zrotation Xrotation Yrotation
          JOINT LeftShoulder
          {
            OFFSET 13.5163 -1.1332 -5.0146
            CHANNELS 6 Xposition Yposition Zposition Zrotation Xrotation Yrotation
            JOINT LeftElbow
            {
              OFFSET -0.0995 -28.05 -0.2431
              CHANNELS 6 Xposition Yposition Zposition Zrotation Xrotation Yrotation
              JOINT LeftWrist
              {
                OFFSET 0.0679 -23.3996 -0.1402
                CHANNELS 6 Xposition Yposition Zposition Zrotation Xrotation Yrotation
                JOINT LeftFinger1
                {
                  OFFSET 0.7932 -9.069 2.5189
                  CHANNELS 6 Xposition Yposition Zposition Zrotation Xrotation Yrotation
                  JOINT LeftFinger11
                  {
                    OFFSET -0.8272 -3.3923 0.5977
                    CHANNELS 6 Xposition Yposition Zposition Zrotation Xrotation Yrotation
                    JOINT LeftFinger12
                    {
                      OFFSET -0.5649 -2.3158 0.4082
                      CHANNELS 6 Xposition Yposition Zposition Zrotation Xrotation Yrotation
                      End Site
                      {
                        OFFSET -0.4919 -1.6479 0.2673
                      }
                    }
                  }
                }
                JOINT LeftFinger2
                {
                  OFFSET 0.9159 -9.2044 0.2193
                  CHANNELS 6 Xposition Yposition Zposition Zrotation Xrotation Yrotation
                  JOINT LeftFinger21
                  {
                    OFFSET 0.0117 -4.1944 -0.0248
                    CHANNELS 6 Xposition Yposition Zposition Zrotation Xrotation Yrotation
                    JOINT LeftFinger22
                    {
                      OFFSET 0.0071 -2.3249 -0.0142
                      CHANNELS 6 Xposition Yposition Zposition Zrotation Xrotation Yrotation
                      End Site
                      {
                        OFFSET -0.1475 -2.0882 0.0028
                      }
                    }
                  }
                }
                JOINT LeftFinger3
                {
                  OFFSET 0.6113 -8.7231 -2.0637
                  CHANNELS 6 Xposition Yposition Zposition Zrotation Xrotation Yrotation
                  JOINT LeftFinger31
                  {
                    OFFSET -0.1927 -3.8059 -0.2383
                    CHANNELS 6 Xposition Yposition Zposition Zrotation Xrotation Yrotation
                    JOINT LeftFinger32
                    {
                      OFFSET -0.1091 -2.1688 -0.1362
                      CHANNELS 6 Xposition Yposition Zposition Zrotation Xrotation Yrotation
                      End Site
                      {
                        OFFSET -0.2358 -1.9176 -0.0906
                      }
                    }
                  }
                }
                JOINT LeftFinger4
                {
                  OFFSET -0.6151 -8.0947 -3.5641
                  CHANNELS 6 Xposition Yposition Zposition Zrotation Xrotation Yrotation
                  JOINT LeftFinger41
                  {
                    OFFSET -0.4882 -2.341 -0.6462
                    CHANNELS 6 Xposition Yposition Zposition Zrotation Xrotation Yrotation
                    JOINT LeftFinger42
                    {
                      OFFSET -0.3575 -1.7167 -0.4742
                      CHANNELS 6 Xposition Yposition Zposition Zrotation Xrotation Yrotation
                      End Site
                      {
                        OFFSET -0.4187 -1.5237 -0.3496
                      }
                    }
                  }
                }
                JOINT LeftFinger0
                {
                  OFFSET -1.42 -1.8761 1.4223
                  CHANNELS 6 Xposition Yposition Zposition Zrotation Xrotation Yrotation
                  JOINT LeftFinger01
                  {
                    OFFSET -1.1471 -3.4929 2.6334
                    CHANNELS 6 Xposition Yposition Zposition Zrotation Xrotation Yrotation
                    JOINT LeftFinger02
                    {
                      OFFSET -0.823 -2.3 1.6571
                      CHANNELS 6 Xposition Yposition Zposition Zrotation Xrotation Yrotation
                      End Site
                      {
                        OFFSET -0.5822 -1.6914 1.1582
                      }
                    }
                  }
                }
              }
            }
          }
        }
        JOINT RightCollar
        {
          OFFSET -2.2603 21.606 7.4023
          CHANNELS 6 Xposition Yposition Zposition Zrotation Xrotation Yrotation
          JOINT RightShoulder
          {
            OFFSET -13.5187 -1.1334 -5.0155
            CHANNELS 6 Xposition Yposition Zposition Zrotation Xrotation Yrotation
            JOINT RightElbow
            {
              OFFSET 0.0994 -28.0499 -0.2431
              CHANNELS 6 Xposition Yposition Zposition Zrotation Xrotation Yrotation
              JOINT RightWrist
              {
                OFFSET -0.0679 -23.3996 -0.1402
                CHANNELS 6 Xposition Yposition Zposition Zrotation Xrotation Yrotation
                JOINT RightFinger1
                {
                  OFFSET -0.7932 -9.0691 2.5189
                  CHANNELS 6 Xposition Yposition Zposition Zrotation Xrotation Yrotation
                  JOINT RightFinger11
                  {
                    OFFSET 0.8272 -3.3923 0.5977
                    CHANNELS 6 Xposition Yposition Zposition Zrotation Xrotation Yrotation
                    JOINT RightFinger12
                    {
                      OFFSET 0.565 -2.3158 0.4082
                      CHANNELS 6 Xposition Yposition Zposition Zrotation Xrotation Yrotation
                      End Site
                      {
                        OFFSET 0.4919 -1.6479 0.2673
                      }
                    }
                  }
                }
                JOINT RightFinger2
                {
                  OFFSET -0.916 -9.2044 0.2193
                  CHANNELS 6 Xposition Yposition Zposition Zrotation Xrotation Yrotation
                  JOINT RightFinger21
                  {
                    OFFSET -0.0117 -4.1944 -0.0248
                    CHANNELS 6 Xposition Yposition Zposition Zrotation Xrotation Yrotation
                    JOINT RightFinger22
                    {
                      OFFSET -0.0071 -2.3249 -0.0142
                      CHANNELS 6 Xposition Yposition Zposition Zrotation Xrotation Yrotation
                      End Site
                      {
                        OFFSET 0.1475 -2.0882 0.0028
                      }
                    }
                  }
                }
                JOINT RightFinger3
                {
                  OFFSET -0.6113 -8.7231 -2.0637
                  CHANNELS 6 Xposition Yposition Zposition Zrotation Xrotation Yrotation
                  JOINT RightFinger31
                  {
                    OFFSET 0.1927 -3.8059 -0.2383
                    CHANNELS 6 Xposition Yposition Zposition Zrotation Xrotation Yrotation
                    JOINT RightFinger32
                    {
                      OFFSET 0.1091 -2.1688 -0.1362
                      CHANNELS 6 Xposition Yposition Zposition Zrotation Xrotation Yrotation
                      End Site
                      {
                        OFFSET 0.2358 -1.9176 -0.0906
                      }
                    }
                  }
                }
                JOINT RightFinger4
                {
                  OFFSET 0.6151 -8.0947 -3.564
                  CHANNELS 6 Xposition Yposition Zposition Zrotation Xrotation Yrotation
                  JOINT RightFinger41
                  {
                    OFFSET 0.4882 -2.341 -0.6462
                    CHANNELS 6 Xposition Yposition Zposition Zrotation Xrotation Yrotation
                    JOINT RightFinger42
                    {
                      OFFSET 0.3574 -1.7166 -0.4742
                      CHANNELS 6 Xposition Yposition Zposition Zrotation Xrotation Yrotation
                      End Site
                      {
                        OFFSET 0.4187 -1.5237 -0.3496
                      }
                    }
                  }
                }
                JOINT RightFinger0
                {
                  OFFSET 1.4199 -1.8761 1.4221
                  CHANNELS 6 Xposition Yposition Zposition Zrotation Xrotation Yrotation
                  JOINT RightFinger01
                  {
                    OFFSET 1.1472 -3.4929 2.6336
                    CHANNELS 6 Xposition Yposition Zposition Zrotation Xrotation Yrotation
                    JOINT RightFinger02
                    {
                      OFFSET 0.8229 -2.3 1.6571
                      CHANNELS 6 Xposition Yposition Zposition Zrotation Xrotation Yrotation
                      End Site
                      {
                        OFFSET 0.5822 -1.6914 1.1582
                      }
                    }
                  }
                }
              }
            }
          }
        }
      }
    }
  }
  JOINT RightHip
  {
    OFFSET -9.412 3.9771 -0.7758
    CHANNELS 6 Xposition Yposition Zposition Zrotation Xrotation Yrotation
    JOINT RightKnee
    {
      OFFSET -0.7531 -40.938 0
      CHANNELS 6 Xposition Yposition Zposition Zrotation Xrotation Yrotation
      JOINT RightAnkle
      {
        OFFSET 0 -40.1986 0
        CHANNELS 6 Xposition Yposition Zposition Zrotation Xrotation Yrotation
        JOINT RightToe
        {
          OFFSET 0 -4.4182 9.239
          CHANNELS 6 Xposition Yposition Zposition Zrotation Xrotation Yrotation
          End Site
          {
            OFFSET 0 0 6.1981
          }
        }
      }
    }
  }
  JOINT LeftHip
  {
    OFFSET 9.4119 3.9773 -0.7758
    CHANNELS 6 Xposition Yposition Zposition Zrotation Xrotation Yrotation
    JOINT LeftKnee
    {
      OFFSET 0.7532 -40.9383 0
      CHANNELS 6 Xposition Yposition Zposition Zrotation Xrotation Yrotation
      JOINT LeftAnkle
      {
        OFFSET 0 -40.1986 0
        CHANNELS 6 Xposition Yposition Zposition Zrotation Xrotation Yrotation
        JOINT LeftToe
        {
          OFFSET 0 -4.4182 9.239
          CHANNELS 6 Xposition Yposition Zposition Zrotation Xrotation Yrotation
          End Site
          {
            OFFSET 0 0 6.1981
          }
        }
      }
    }
  }
}
MOTION
Frames:	4
Frame Time:	0.0333333
5.72205e-005 65.662 3.42586 0 0 -0 0 8.7983 -4.7612 0 0 -0 0 8.0291 0.4195 0 0 -0 0 9.9351 -2.2114 0 0 -0 0 22.3885 -0.4656 0 0 -0 -0.0001 12.643 3.4389 0 0 -0 2.2603 21.606 7.4023 0 0 -12.5014 13.5163 -1.1332 -5.0146 88.1196 14.2451 10.6914 -0.0995 -28.05 -0.2431 -0.00160068 -0.00239207 0.000740045 0.0679 -23.3996 -0.1402 -8.4365e-005 7.00714e-005 -9.52055e-007 0.7932 -9.069 2.5189 9.93923e-017 -1.98785e-016 -1.59028e-015 -0.8272 -3.3923 0.5977 9.93923e-017 -5.96354e-016 -1.59028e-015 -0.5649 -2.3158 0.4082 -9.93923e-017 -5.96354e-016 -1.59028e-015 0.9159 -9.2044 0.2193 9.93923e-017 -1.98785e-016 -1.59028e-015 0.0117 -4.1944 -0.0248 -0.0128176 0.00232552 8.52707e-005 0.0071 -2.3249 -0.0142 9.93923e-017 5.96354e-016 -0 0.6113 -8.7231 -2.0637 9.93923e-017 -1.98785e-016 -1.59028e-015 -0.1927 -3.8059 -0.2383 -0.0160551 0.00299681 0.000857156 -0.1091 -2.1688 -0.1362 -2.48481e-016 0 3.18055e-015 -0.6151 -8.0947 -3.5641 9.93923e-017 -1.98785e-016 -1.59028e-015 -0.4882 -2.341 -0.6462 -0.0125865 0.0031206 0.00282719 -0.3575 -1.7167 -0.4742 0 1.98785e-016 -0 -1.42 -1.8761 1.4223 9.93923e-017 -1.98785e-016 -1.59028e-015 -1.1471 -3.4929 2.6334 9.93923e-017 -5.96354e-016 -1.59028e-015 -0.823 -2.3 1.6571 -9.93923e-017 -5.96354e-016 -1.59028e-015 -2.2603 21.606 7.4023 -0.865644 0.16582 7.03859 -13.5187 -1.1334 -5.0155 -88.0329 10.2057 -10.5567 0.0994 -28.0499 -0.2431 0.0015593 -0.00248883 -0.000788628 -0.0679 -23.3996 -0.1402 7.87605e-005 4.10553e-005 1.24965e-005 -0.7932 -9.0691 2.5189 -3.97569e-016 -7.95139e-016 3.18055e-015 0.8272 -3.3923 0.5977 -1.98785e-016 -3.97569e-016 3.18055e-015 0.565 -2.3158 0.4082 -1.98785e-016 0 3.18055e-015 -0.916 -9.2044 0.2193 -3.97569e-016 -7.95139e-016 3.18055e-015 -0.0117 -4.1944 -0.0248 0.0129473 0.00231697 -8.70038e-005 -0.0071 -2.3249 -0.0142 9.93923e-017 -7.95139e-016 1.59028e-015 -0.6113 -8.7231 -2.0637 -3.97569e-016 -7.95139e-016 3.18055e-015 0.1927 -3.8059 -0.2383 0.0163314 0.00303369 -0.000872333 0.1091 -2.1688 -0.1362 3.97569e-016 7.95139e-016 -3.18055e-015 0.6151 -8.0947 -3.564 -3.97569e-016 -7.95139e-016 3.18055e-015 0.4882 -2.341 -0.6462 0.0145763 0.00367772 -0.00326275 0.3574 -1.7166 -0.4742 9.93923e-017 -3.97569e-016 -0 1.4199 -1.8761 1.4221 -3.97569e-016 -7.95139e-016 3.18055e-015 1.1472 -3.4929 2.6336 -1.98785e-016 -3.97569e-016 3.18055e-015 0.8229 -2.3 1.6571 -1.98785e-016 0 3.18055e-015 -9.412 3.9771 -0.7758 3.42482 1.32465 -0.0626183 -0.7531 -40.938 0 0.000117508 0.717283 0.000978199 0 -40.1986 0 -3.4257 -2.04197 -0.0604716 8.88178e-016 -4.4182 9.239 6.47761e-025 0 -0 9.4119 3.9773 -0.7758 -3.42483 1.34017 0.0627307 0.7532 -40.9383 -2.22045e-016 -0.000193936 0.682302 -0.0013703 -8.88179e-016 -40.1986 0 3.42574 -2.02253 0.0595886 -8.88178e-016 -4.4182 9.239 -8.45714e-024 0 -7.40531e-025 
2.48868 3.58685 9.64996 -122.294 -89.9975 -75.2942 0 8.7983 -4.7612 -1.38985 12.1881 -9.49002 -1.11022e-016 8.0291 0.4195 -0.67085 24.4352 -19.3557 -8.88179e-016 9.9351 -2.2114 -0.670867 24.4351 -19.3556 -8.88179e-016 22.3885 -0.4656 -0.681351 18.0874 12.0772 -0.0001 12.643 3.4389 -4.38463 -0.13379 0.0666134 2.2603 21.606 7.4023 -23.0028 -0.3935 -10.2663 13.5163 -1.1332 -5.0146 72.26 10.4228 13.0072 -0.0995 -28.05 -0.2431 -100.289 -70.8435 -24.1375 0.0679 -23.3996 -0.1402 -6.88328 1.25821 -0.137765 0.7932 -9.069 2.5189 9.54166e-015 7.15625e-015 3.18055e-015 -0.8272 -3.3923 0.5977 9.54166e-015 5.56597e-015 6.36111e-015 -0.5649 -2.3158 0.4082 6.36111e-015 5.56597e-015 4.77083e-015 0.9159 -9.2044 0.2193 9.54166e-015 7.15625e-015 3.18055e-015 0.0117 -4.1944 -0.0248 -0.0128209 0.00232528 9.08974e-005 0.0071 -2.3249 -0.0142 -1.27222e-014 1.27222e-014 -0 0.6113 -8.7231 -2.0637 9.54166e-015 7.15625e-015 3.18055e-015 -0.1927 -3.8059 -0.2383 -0.0160367 0.00298953 0.000852328 -0.1091 -2.1688 -0.1362 -3.18055e-015 1.59028e-015 -2.38542e-015 -0.6151 -8.0947 -3.5641 9.54166e-015 7.15625e-015 3.18055e-015 -0.4882 -2.341 -0.6462 -0.0126118 0.00314187 0.00283956 -0.3575 -1.7167 -0.4742 3.18055e-015 7.95139e-016 -7.95139e-016 -1.42 -1.8761 1.4223 9.54166e-015 7.15625e-015 3.18055e-015 -1.1471 -3.4929 2.6334 9.54166e-015 5.56597e-015 6.36111e-015 -0.823 -2.3 1.6571 6.36111e-015 5.56597e-015 4.77083e-015 -2.2603 21.606 7.4023 -20.5225 -5.79765 8.49028 -13.5187 -1.1334 -5.0155 -116.372 4.16352 -12.6215 0.0994 -28.0499 -0.2431 -126.093 -15.4412 -152.128 -0.0679 -23.3996 -0.1402 6.8736 1.25126 0.312969 -0.7932 -9.0691 2.5189 2.43266e-007 -3.15815e-006 3.37443e-006 0.8272 -3.3923 0.5977 9.54166e-015 1.35174e-014 -1.59028e-015 0.565 -2.3158 0.4082 6.36111e-015 1.11319e-014 -0 -0.916 -9.2044 0.2193 2.43266e-007 -3.15815e-006 3.37443e-006 -0.0117 -4.1944 -0.0248 0.012937 0.00230088 -8.29288e-005 -0.0071 -2.3249 -0.0142 -2.90235e-006 -6.83535e-006 -3.91129e-008 -0.6113 -8.7231 -2.0637 2.43266e-007 -3.15815e-006 3.37443e-006 0.1927 -3.8059 -0.2383 0.01634 0.00300857 -0.000869458 0.1091 -2.1688 -0.1362 -4.41391e-032 -7.95139e-016 -3.18055e-015 0.6151 -8.0947 -3.564 2.43266e-007 -3.15815e-006 3.37443e-006 0.4882 -2.341 -0.6462 0.0145741 0.00368285 -0.00326987 0.3574 -1.7166 -0.4742 9.6145e-006 -2.60195e-005 2.4049e-006 1.4199 -1.8761 1.4221 2.43266e-007 -3.15815e-006 3.37443e-006 1.1472 -3.4929 2.6336 9.54166e-015 1.35174e-014 -1.59028e-015 0.8229 -2.3 1.6571 6.36111e-015 1.11319e-014 -0 -9.412 3.9771 -0.7758 -37.563 -6.96128 -40.8501 -0.7531 -40.938 2.66454e-015 -170.692 60.627 167.9 0 -40.1986 0 -6.75165 13.2474 -2.48943 0 -4.4182 9.239 7.58984e-007 4.73771e-007 3.10836e-006 9.4119 3.9773 -0.7758 11.8005 -13.9292 2.88008 0.7532 -40.9383 1.11022e-015 -6.64146 14.6465 1.6339 1.77636e-015 -40.1986 1.77636e-015 8.21135 11.1371 1.12601 -3.55271e-015 -4.4182 9.239 4.65018e-006 1.13027e-005 -5.50387e-006 
2.48895 3.58685 9.64997 -122.483 -89.9975 -75.4835 -3.33067e-016 8.7983 -4.7612 -1.38985 12.1881 -9.49002 1.11022e-016 8.0291 0.4195 -0.670849 24.4352 -19.3557 8.88179e-016 9.9351 -2.2114 -0.670876 24.4351 -19.3556 1.77636e-015 22.3885 -0.4656 -0.679609 18.1805 12.0736 -0.0001 12.643 3.4389 -4.32287 0.171611 0.425588 2.2603 21.606 7.4023 -23.0028 -0.393513 -10.2663 13.5163 -1.1332 -5.0146 72.26 10.4228 13.0072 -0.0995001 -28.05 -0.2431 -100.289 -70.8434 -24.1374 0.0679 -23.3996 -0.1402 -6.88327 1.25821 -0.137767 0.7932 -9.069 2.5189 2.20634e-006 -2.63538e-006 2.35494e-006 -0.8272 -3.3923 0.5977 -3.25545e-007 -7.68667e-006 -2.77923e-006 -0.5649 -2.3158 0.4082 1.80488e-006 1.02231e-005 -2.43662e-006 0.9159 -9.2044 0.2193 2.20634e-006 -2.63538e-006 2.35494e-006 0.0117 -4.1944 -0.0248 -0.0128316 0.00232119 8.19004e-005 0.0071 -2.3249 -0.0142 -3.18055e-015 -7.15625e-015 7.95139e-016 0.6113 -8.7231 -2.0637 2.20634e-006 -2.63538e-006 2.35494e-006 -0.1927 -3.8059 -0.2383 -0.016033 0.00297234 0.00086065 -0.1091 -2.1688 -0.1362 3.61089e-006 1.79753e-005 -4.8731e-006 -0.6151 -8.0947 -3.5641 2.20634e-006 -2.63538e-006 2.35494e-006 -0.4882 -2.341 -0.6462 -0.0126196 0.00311952 0.00281812 -0.3575 -1.7167 -0.4742 3.18055e-015 5.56597e-015 -4.77083e-015 -1.42 -1.8761 1.4223 2.20634e-006 -2.63538e-006 2.35494e-006 -1.1471 -3.4929 2.6334 -3.25545e-007 -7.68667e-006 -2.77923e-006 -0.823 -2.3 1.6571 1.80488e-006 1.02231e-005 -2.43662e-006 -2.2603 21.606 7.4023 -20.5225 -5.79765 8.49029 -13.5187 -1.1334 -5.0155 -116.372 4.16354 -12.6215 0.0994 -28.0499 -0.2431 -126.093 -15.4411 -152.128 -0.0679 -23.3996 -0.1402 6.8736 1.2513 0.312999 -0.7932 -9.0691 2.5189 -2.02587e-006 5.52598e-006 -2.85043e-006 0.8272 -3.3923 0.5977 -1.66097e-006 1.14179e-005 2.21121e-006 0.565 -2.3158 0.4082 4.56373e-006 -4.58027e-006 -2.17222e-006 -0.916 -9.2044 0.2193 -2.02587e-006 5.52598e-006 -2.85043e-006 -0.0117 -4.1944 -0.0248 0.0129318 0.00230811 -8.92008e-005 -0.0071 -2.3249 -0.0142 6.36111e-015 -1.59028e-015 -3.18055e-015 -0.6113 -8.7231 -2.0637 -2.02587e-006 5.52598e-006 -2.85043e-006 0.1927 -3.8059 -0.2383 0.0163347 0.00303246 -0.000877419 0.1091 -2.1688 -0.1362 5.68288e-006 -5.112e-006 -1.60887e-006 0.6151 -8.0947 -3.564 -2.02587e-006 5.52598e-006 -2.85043e-006 0.4882 -2.341 -0.6462 0.0145423 0.00366508 -0.00326251 0.3574 -1.7166 -0.4742 8.56065e-006 8.39152e-008 1.30522e-005 1.4199 -1.8761 1.4221 -2.02587e-006 5.52598e-006 -2.85043e-006 1.1472 -3.4929 2.6336 -1.66097e-006 1.14179e-005 2.21121e-006 0.8229 -2.3 1.6571 4.56373e-006 -4.58027e-006 -2.17222e-006 -9.412 3.9771 -0.7758 -37.4368 -7.05205 -40.7373 -0.7531 -40.938 1.77636e-015 -170.693 60.6248 167.902 -3.55272e-015 -40.1986 -7.10543e-015 -6.75071 13.2422 -2.48905 -3.55271e-015 -4.4182 9.239 -3.53113e-031 -3.18055e-015 -6.36111e-015 9.4119 3.9773 -0.7758 11.8004 -13.9295 2.88008 0.7532 -40.9383 -8.88178e-016 -6.64149 14.6473 1.63401 0 -40.1986 0 8.21148 11.1366 1.126 3.55271e-015 -4.4182 9.239 -3.18055e-015 0 7.95139e-015 
2.48922 3.58687 9.64998 -122.483 -89.9975 -75.4835 0 8.7983 -4.7612 -1.38985 12.1881 -9.49002 1.11022e-016 8.0291 0.4195 -0.670856 24.4352 -19.3557 0 9.9351 -2.2114 -0.670867 24.4351 -19.3556 -2.66454e-015 22.3885 -0.4656 -0.677852 18.2736 12.0699 -0.0001 12.643 3.4389 -4.26295 0.477725 0.784611 2.2603 21.606 7.4023 -23.0028 -0.393529 -10.2663 13.5163 -1.1332 -5.0146 72.26 10.4228 13.0072 -0.0995001 -28.05 -0.2431 -100.289 -70.8435 -24.1374 0.0679 -23.3996 -0.1402 -6.88326 1.25819 -0.137763 0.7932 -9.069 2.5189 -3.18055e-015 5.56597e-015 -7.95139e-016 -0.8272 -3.3923 0.5977 1.00516e-005 3.08997e-005 -1.3018e-005 -0.5649 -2.3158 0.4082 3.18055e-015 -1.59028e-015 -3.18055e-015 0.9159 -9.2044 0.2193 -3.18055e-015 5.56597e-015 -7.95139e-016 0.0117 -4.1944 -0.0248 -0.0128487 0.00234389 7.78024e-005 0.0071 -2.3249 -0.0142 6.36111e-015 5.56597e-015 -3.97569e-015 0.6113 -8.7231 -2.0637 -3.18055e-015 5.56597e-015 -7.95139e-016 -0.1927 -3.8059 -0.2383 -0.0160768 0.00300311 0.000868243 -0.1091 -2.1688 -0.1362 -6.36111e-015 0 7.95139e-016 -0.6151 -8.0947 -3.5641 -3.18055e-015 5.56597e-015 -7.95139e-016 -0.4882 -2.341 -0.6462 -0.0125868 0.00312506 0.00282114 -0.3575 -1.7167 -0.4742 1.59028e-014 7.15625e-015 -7.95139e-015 -1.42 -1.8761 1.4223 -3.18055e-015 5.56597e-015 -7.95139e-016 -1.1471 -3.4929 2.6334 1.00516e-005 3.08997e-005 -1.3018e-005 -0.823001 -2.3 1.6571 3.18055e-015 -1.59028e-015 -3.18055e-015 -2.2603 21.606 7.4023 -20.5225 -5.79767 8.49029 -13.5187 -1.1334 -5.0155 -116.372 4.16329 -12.6215 0.0994 -28.0499 -0.2431 -126.093 -15.4413 -152.128 -0.0679 -23.3996 -0.1402 6.87359 1.25128 0.313001 -0.7932 -9.0691 2.5189 6.36111e-015 0 1.59028e-015 0.8272 -3.3923 0.5977 1.21634e-007 1.36188e-005 1.68722e-006 0.565 -2.3158 0.4082 -1.21635e-007 -1.36188e-005 -1.68722e-006 -0.916 -9.2044 0.2193 6.36111e-015 0 1.59028e-015 -0.0117 -4.1944 -0.0248 0.0129474 0.00231977 -8.3346e-005 -0.0071 -2.3249 -0.0142 -7.34474e-006 9.18414e-007 3.82015e-006 -0.6113 -8.7231 -2.0637 6.36111e-015 0 1.59028e-015 0.1927 -3.8059 -0.2383 0.016327 0.00304451 -0.000878663 0.1091 -2.1688 -0.1362 -1.90506e-006 1.76823e-006 -1.16327e-006 0.6151 -8.0947 -3.564 6.36111e-015 0 1.59028e-015 0.4882 -2.341 -0.6462 0.0145837 0.00368148 -0.00326748 0.3574 -1.7166 -0.4742 -1.66178e-006 -2.55848e-006 2.21126e-006 1.4199 -1.8761 1.4221 6.36111e-015 0 1.59028e-015 1.1472 -3.4929 2.6336 1.21634e-007 1.36188e-005 1.68722e-006 0.8229 -2.3 1.6571 -1.21635e-007 -1.36188e-005 -1.68722e-006 -9.412 3.9771 -0.7758 -37.3102 -7.14252 -40.6244 -0.7531 -40.938 0 -170.694 60.6227 167.904 0 -40.1986 0 -6.74976 13.2369 -2.4887 0 -4.4182 9.239 2.45517e-006 1.61029e-006 4.10901e-007 9.4119 3.9773 -0.7758 11.8003 -13.9294 2.8801 0.7532 -40.9383 -1.77636e-015 -6.64151 14.6476 1.63401 -1.77636e-015 -40.1986 0 8.21158 11.1362 1.12605 0 -4.4182 9.239 -3.18055e-015 3.18055e-015 -1.59028e-015 
